<?xml version="1.0" encoding="UTF-8"?>
<svg xmlns="http://www.w3.org/2000/svg" width="163" height="81" viewBox="0 0 163 81" fill="none">
  <g id="Layer_1" clip-path="url(#clip0_240_4582)">
    <path id="Vector" d="M6.88228 135.466C6.88228 134.94 6.78369 82.5486 6.78369 69.0941C6.78369 55.6396 18.0341 51.4061 18.1478 51.3597L18.9176 53.3083C18.5043 53.4784 8.83887 57.6308 8.83887 69.098C8.83887 82.5524 8.93367 134.936 8.93746 135.466H6.87849H6.88228Z" fill="white"></path>
    <path id="Vector_2" d="M19.7895 87.7758H17.7306V34.3214C17.7306 22.858 8.06517 18.7057 7.65186 18.5356L8.42539 16.587C8.53915 16.6334 19.7895 21.4159 19.7895 34.3214V87.7758Z" fill="white"></path>
    <path id="Vector_3" d="M19.7897 -20.927H17.7307V17.0084H19.7897V-20.927Z" fill="white"></path>
    <path id="Vector_4" d="M2.21058 -20.927H0.151611V71.2244H2.21058V-20.927Z" fill="white"></path>
    <path id="Vector_5" d="M5.43739 135.465H3.37842C3.37842 135.465 3.39738 82.707 3.39738 69.094C3.39738 53.1691 18.2804 47.4973 18.432 47.4393L19.1335 49.415L18.7847 48.4291L19.1373 49.415C18.5799 49.6237 5.46014 54.6614 5.46014 69.094C5.46014 82.7031 5.44118 135.465 5.44118 135.465H5.43739Z" fill="white"></path>
    <path id="Vector_6" d="M23.1075 92.4034H21.0485C21.0485 91.9588 21.0637 47.7756 21.0485 34.325C21.0334 19.5367 7.80362 14.847 7.24243 14.6537L7.89463 12.6626C8.0463 12.7129 23.0923 17.998 23.1113 34.325C23.1265 47.7795 23.1113 91.9627 23.1113 92.4073L23.1075 92.4034Z" fill="white"></path>
    <path id="Vector_7" d="M23.1 -20.927H21.041V21.7832H23.1V-20.927Z" fill="white"></path>
    <path id="Vector_8" d="M5.52845 -20.9192H3.46948V56.0921H5.52845V-20.9192Z" fill="white"></path>
    <path id="Vector_9" d="M2.05897 135.45L0 135.442C0 134.917 0.151674 82.5486 0.151674 69.0942C0.151674 59.3088 5.00523 52.9411 9.07388 49.3262C13.4573 45.429 17.7951 43.8477 17.9771 43.7859L18.6597 45.7693C18.5762 45.8002 14.4393 47.3273 10.3707 50.9616C4.95594 55.7982 2.21064 61.903 2.21064 69.098C2.21064 82.5525 2.05897 134.924 2.05897 135.45Z" fill="white"></path>
    <path id="Vector_10" d="M26.4216 104.014H24.3626V34.3211C24.3626 27.1222 21.6173 21.0213 16.2025 16.1847C12.1149 12.5311 7.95528 11.0078 7.91357 10.9923L8.59611 9.01282C8.77811 9.07854 13.116 10.6598 17.4994 14.5531C21.568 18.1719 26.4216 24.5357 26.4216 34.3211V104.014Z" fill="white"></path>
    <path id="Vector_11" d="M26.4215 -20.927H24.3625V35.6706H26.4215V-20.927Z" fill="white"></path>
    <path id="Vector_12" d="M8.84266 -20.927H6.78369V52.4152H8.84266V-20.927Z" fill="white"></path>
    <path id="Vector_13" d="M26.4216 135.446H24.3626V105.309C24.3626 98.11 21.6173 92.0091 16.2025 87.1725C12.1149 83.5189 7.95528 81.9956 7.91357 81.9801L8.59611 80.0006C8.77811 80.0663 13.116 81.6476 17.4994 85.5409C21.568 89.1597 26.4216 95.5235 26.4216 105.309V135.446Z" fill="white"></path>
    <path id="Vector_14" d="M112.106 65.9122H110.513L111.393 57.8975L112.11 65.9122H112.106ZM115.158 71.7966L112.712 53.1305H110.073L107.628 71.7966H109.827L110.24 68.1817H112.356L112.686 71.7966H115.158ZM107.874 55.5121V53.1305H101.003V55.5121H103.286V71.7966H105.679V55.5121H107.878H107.874ZM98.2276 65.9083H96.6351L97.5148 57.8936L98.2276 65.9083ZM101.28 71.7927L98.8343 53.1266H96.1952L93.7495 71.7927H95.9487L96.362 68.1778H98.4779L98.8078 71.7927H101.28ZM92.7863 71.7927V53.1266H90.3671V61.3926H88.0579V53.1266H85.6387V71.7927H88.0579V63.778H90.3671V71.7927H92.7863ZM84.7059 53.1266H82.5066L81.297 65.7111L80.0875 53.1266H78.2181L76.7885 65.7111L75.7723 53.1266H73.41L75.4993 71.7927H77.5886L78.9613 60.6116L80.1709 71.7927H82.2867L84.7059 53.1266ZM70.3841 65.9083H68.7915L69.6713 57.8936L70.3841 65.9083ZM73.4366 71.7927L70.9908 53.1266H68.3517L65.906 71.7927H68.1052L68.5185 68.1778H70.6344L70.9643 71.7927H73.4366ZM62.6336 60.5265C62.6336 61.3114 62.3302 61.6748 61.7539 61.6748H60.7111V55.3961H61.8638C62.3871 55.3961 62.6336 55.7324 62.6336 56.4593V60.5227V60.5265ZM65.4926 71.8778V71.178C65.2196 70.7024 65.0793 70.1148 65.0793 69.2719V65.1235C65.0793 64.0293 64.5561 63.1904 63.6233 62.7419C64.5598 62.2934 65.0262 61.4815 65.0262 60.3603V56.4361C65.0262 53.9965 63.5702 53.1305 62.0041 53.1305H58.2919V71.7966H60.7111V63.809H61.7842C62.4175 63.809 62.7473 64.3116 62.7473 64.9572V69.415C62.7473 70.7604 63.1038 71.8816 63.9835 71.8816H65.4964L65.4926 71.8778ZM54.2498 65.9083H52.6572L53.537 57.8936L54.2536 65.9083H54.2498ZM57.3023 71.7927L54.8565 53.1266H52.2174L49.7717 71.7927H51.9709L52.3842 68.1778H54.5001L54.83 71.7927H57.3023ZM46.1163 71.7927V69.4652H42.6544V63.2716H45.0736V61.0562H42.6544V55.4231H46.1163V53.1266H40.2617V71.7927H46.1163ZM39.1621 55.5082V53.1266H32.2913V55.5082H34.5739V71.7927H36.9666V55.5082H39.1659H39.1621Z" fill="#FF1C24"></path>
    <path id="Vector_15" d="M162.079 49.7862V31.1201H158.863L157.6 40.5653L157.187 44.2923L156.774 40.5653L155.481 31.1201H152.208V49.7862H154.324V35.6049L154.707 39.359L156.08 49.7824H157.923L159.379 39.359L159.792 35.6049V49.7862H162.075H162.079ZM150.536 46.3685V31.124H148.227V46.4806C148.227 47.2655 147.84 47.7139 147.101 47.7139C146.415 47.7139 146.028 47.2655 146.028 46.4806V31.124H143.609V46.3685C143.609 48.5838 145.122 50.0685 147.101 50.0685C149.08 50.0685 150.536 48.5838 150.536 46.3685ZM142.346 49.7862V47.4588H138.884V41.2651H141.303V39.0497H138.884V33.4167H142.346V31.1201H136.491V49.7862H142.346ZM135.145 45.9741C135.145 43.8168 134.046 41.7136 132.643 39.6103C131.27 37.4801 130.58 36.498 130.58 34.4257C130.58 33.5558 131.073 33.0803 131.763 33.0803C132.453 33.0803 132.863 33.6409 132.863 34.5649V36.7803H135.035V34.65C135.035 32.2955 133.742 30.8379 131.763 30.8379C129.37 30.8379 128.244 32.6318 128.244 34.9863C128.244 37.1437 129.7 39.6645 130.883 41.3772C132.146 43.2833 132.806 44.6828 132.806 46.4226C132.806 47.3467 132.392 47.9073 131.543 47.9073C130.747 47.9073 130.333 47.3196 130.333 46.3376V44.2343H128.134V46.2525C128.134 48.607 129.454 50.0646 131.626 50.0646C133.386 50.0646 135.145 48.9163 135.145 45.9741ZM126.871 46.3646V31.1201H124.562V46.4768C124.562 47.2616 124.179 47.7101 123.436 47.7101C122.75 47.7101 122.363 47.2616 122.363 46.4768V31.1201H119.944V46.3646C119.944 48.58 121.457 50.0646 123.436 50.0646C125.415 50.0646 126.871 48.58 126.871 46.3646ZM118.294 49.7824V31.1163H115.079L113.816 40.5614L113.403 44.2885L112.989 40.5614L111.696 31.1163H108.424V49.7824H110.54V35.6011L110.923 39.3552L112.296 49.7785H114.138L115.594 39.3552L116.008 35.6011V49.7824H118.29H118.294Z" fill="#898A8D"></path>
    <path id="Vector_16" d="M102.376 49.7859V31.1198H100.234V42.8886L99.5473 40.0856L97.2381 31.1159H94.9819V49.7821H97.1546V38.0674L97.8978 40.8434L100.48 49.7821H102.376V49.7859ZM90.9967 46.4803C90.9967 47.211 90.5834 47.6866 89.8705 47.6866C89.1576 47.6866 88.7709 47.211 88.7709 46.4803V34.4293C88.7709 33.7295 89.1538 33.223 89.8705 33.223C90.5872 33.223 90.9967 33.7256 90.9967 34.4293V46.4803ZM93.4159 46.2561V34.6535C93.4159 32.4382 91.9333 30.8414 89.8705 30.8414C87.8077 30.8414 86.3251 32.4382 86.3251 34.6535V46.2561C86.3251 48.4985 87.8077 50.0682 89.8705 50.0682C91.9333 50.0682 93.4159 48.4985 93.4159 46.2561ZM84.7288 31.1237H82.3096V49.7898H84.7288V31.1237ZM81.2099 33.5053V31.1237H74.3391V33.5053H76.6218V49.7898H79.0145V33.5053H81.2137H81.2099ZM71.5635 43.9015H69.9709L70.8506 35.8869L71.5635 43.9015ZM74.6159 49.7859L72.1702 31.1198H69.531L67.0853 49.7859H69.2846L69.6979 46.171H71.8137L72.1436 49.7859H74.6159ZM63.8129 38.5197C63.8129 39.3046 63.5096 39.668 62.9332 39.668H61.8905V33.3893H63.0432C63.5665 33.3893 63.8129 33.7256 63.8129 34.4564V38.5197ZM66.672 49.871V49.1712C66.399 48.6956 66.2587 48.1041 66.2587 47.2651V43.1167C66.2587 42.0225 65.7354 41.1836 64.8026 40.7351C65.7392 40.2866 66.2056 39.4747 66.2056 38.3535V34.4293C66.2056 31.9897 64.7495 31.1237 63.1835 31.1237H59.4713V49.7898H61.8905V41.8022H62.9636C63.5968 41.8022 63.9267 42.3086 63.9267 42.9504V47.4043C63.9267 48.7498 64.2831 49.871 65.1628 49.871H66.6758H66.672ZM58.1252 49.7859V47.4585H54.6632V41.2648H57.0824V39.0494H54.6632V33.4163H58.1252V31.1198H52.2706V49.7859H58.1252ZM48.3953 46.4494C48.3953 47.1762 48.1223 47.5126 47.599 47.5126H46.416V41.346H47.4891C48.0389 41.346 48.3953 41.7674 48.3953 42.4942V46.4455V46.4494ZM48.3688 38.1834C48.3688 38.9412 48.0389 39.3046 47.4625 39.3046H46.4198V33.3893H47.5725C48.0958 33.3893 48.3688 33.7256 48.3688 34.4564V38.1834ZM50.7311 46.5074V42.7533C50.7311 41.5741 50.3178 40.708 49.275 40.2595C50.2912 39.8691 50.7045 38.9992 50.7045 37.7929V34.4022C50.7045 31.9626 49.3016 31.1237 47.7355 31.1237H43.9968V49.7898H47.7621C49.3016 49.7898 50.7311 48.9779 50.7311 46.5112M42.2374 31.1237H39.8182V49.7898H42.2374V31.1237ZM38.692 49.7898V47.4623H35.3665V31.1237H32.9739V49.7898H38.692Z" fill="#898A8D"></path>
    <path id="Vector_17" d="M114.923 23.9947C114.923 25.0038 114.62 25.4793 113.85 25.4793H112.777V11.4372H113.85C114.62 11.4372 114.923 11.9128 114.923 12.9218V23.9908V23.9947ZM117.342 23.9406V13.0108C117.342 10.4049 116.049 9.11361 113.99 9.11361H110.362V27.7797H113.99C116.053 27.7797 117.342 26.5735 117.342 23.9406ZM108.655 27.7797V9.11361H106.513V20.8824L105.827 18.0794L103.517 9.10974H101.265V27.7759H103.438V16.0612L104.181 18.8372L106.763 27.7759H108.659L108.655 27.7797ZM97.276 21.8953H95.6834L96.5631 13.8807L97.276 21.8953ZM100.328 27.7797L97.8827 9.11361H95.2436L92.7978 27.7797H94.9971L95.4104 24.1648H97.5263L97.8561 27.7797H100.328ZM92.4149 27.7797V25.4523H89.0894V9.11361H86.6967V27.7797H92.4149ZM82.6584 21.8953H81.0659L81.9456 13.8807L82.6622 21.8953H82.6584ZM85.7109 27.7797L83.2651 9.11361H80.626L78.1803 27.7797H80.3795L80.7929 24.1648H82.9087L83.2386 27.7797H85.7109ZM77.6039 27.7797V25.4523H74.142V19.2586H76.5612V17.0432H74.142V11.4101H77.6039V9.10974H71.7493V27.7759H77.6039V27.7797ZM70.5662 10.1227V9.11361H64.1618V11.4681H67.9271L63.9419 26.7706V27.7797H70.3729V25.4523H66.6076L70.5662 10.1227Z" fill="#898A8D"></path>
    <path id="Vector_18" d="M59.7709 9.11361H57.5717L56.3621 21.6982L55.1525 9.11361H53.2831L51.8536 21.6982L50.8374 9.11361H48.475L50.5644 27.7797H52.6537L54.0263 16.5986L55.2359 27.7797H57.3517L59.7709 9.11361ZM47.8683 27.7797V25.4523H44.4064V19.2586H46.8256V17.0432H44.4064V11.4101H47.8683V9.11361H42.0137V27.7797H47.8683ZM40.3112 27.7797V9.11361H38.1688V20.8824L37.4825 18.0794L35.1733 9.10974H32.9209V27.7759H35.0936V16.0612L35.8368 18.8372L38.4191 27.7759H40.315L40.3112 27.7797Z" fill="#898A8D"></path>
  </g>
  <defs>
    <clipPath id="clip0_240_4582">
      <rect width="163" height="80.5496" fill="white"></rect>
    </clipPath>
  </defs>
</svg>
